<?xml version="1.0" encoding="UTF-8"?>
<svg id="Calque_6" data-name="Calque 6" xmlns="http://www.w3.org/2000/svg" viewBox="0 0 500 500">
  <defs>
    <style>
      .cls-1 {
        fill: #d97926;
      }

      .cls-1, .cls-2, .cls-3, .cls-4, .cls-5, .cls-6, .cls-7, .cls-8, .cls-9 {
        stroke: #000;
        stroke-miterlimit: 10;
      }

      .cls-2 {
        stroke-width: 3.01px;
      }

      .cls-2, .cls-3, .cls-5, .cls-6 {
        fill: none;
      }

      .cls-4 {
        fill: #4ca000;
      }

      .cls-5 {
        stroke-width: 3px;
      }

      .cls-6 {
        stroke-width: 2px;
      }

      .cls-7 {
        fill: #803f13;
      }

      .cls-8 {
        fill: #e00000;
      }

      .cls-9 {
        fill: #f3e600;
      }
    </style>
  </defs>
  <g id="Pannier">
    <g>
      <path class="cls-7" d="m299.03,390l-11.55,11.61v.03c-46.63,4.05-77.83-5.16-28.64-24.6,8.74-4.63,15.45-7.92,20.83-10.43l-9.39,14.55,16.15-6.13-9.29,15.04,21.88-.07Z"/>
      <path class="cls-7" d="m429.61,157.9l-2.97,7.7-10.63-6.83-1.15,11.38-9.29-12.44-8.38,10.15c-3.49-34.3-9.85-54.59,4.78-40.78,3.59,2.91,7.04,6.05,10.34,9.38,6.59,6.66,12.35,13.82,17.3,21.44Z"/>
      <path class="cls-9" d="m397.28,363.2c-23.03,22.83-71.59,35.08-109.81,38.41l11.55-11.61-21.88.07,9.29-15.04-16.15,6.13,9.39-14.55v-.03c23.59-10.98,22.07-6.84,56.72-32.32,64.8-47.65,65.55-119.43,60.86-165.88-.01-.18-.03-.33-.07-.51l8.38-10.15,9.29,12.44,1.15-11.38,10.63,6.83,2.97-7.7c38.92,59.97,26.92,146.53-32.33,205.29Z"/>
      <path class="cls-4" d="m69.8,201.06S2.83,163.6,4.53,146.67c1.93-19.14,61.65,25.61,59.63,21.79-6.23-11.74-29.54-67.86-18.7-75.54,12.51-8.87,47.88,60.07,47.88,60.07,4.17-2.21,2.53-65.14,17.37-67.97,22.35-4.26,13.35,89.05,13.35,89.05"/>
      <path class="cls-1" d="m40.16,223.92c11.66-16.34,99.8-63.61,132.06-63.69,23.38-.05,55.74,236.49,43.23,243.13-12.51,6.63-193.67-153.67-175.29-179.44Z"/>
      <line class="cls-3" x1="126.32" y1="295.73" x2="148.37" y2="246.65"/>
      <line class="cls-3" x1="101.53" y1="277.61" x2="128.98" y2="218.59"/>
      <line class="cls-3" x1="147.39" y1="320.54" x2="169.43" y2="271.46"/>
      <path class="cls-5" d="m300.78,220.14s-5.06-25.82,21.98-27.11"/>
      <path class="cls-8" d="m286.71,325.39c-3.92-1.99-5.55-6.42-6.05-10.45-3.02,5.34-10.34,6.87-10.8,6.96h-.02c-88.62-24.95-72.36-135.22.32-124.27,26.25,3.95,14.02,21.56,30.61,22.51,17.39.99,9.88-17.86,39.38-11.96,72.96,14.57,44.41,130.84-53.45,117.21Z"/>
      <line class="cls-6" x1="45.74" y1="279.17" x2="161.94" y2="395.36"/>
      <line class="cls-6" x1="404.37" y1="177.71" x2="480.46" y2="253.8"/>
      <line class="cls-6" x1="451.56" y1="178.89" x2="490.49" y2="217.82"/>
      <line class="cls-6" x1="221.52" y1="178.89" x2="404.96" y2="362.33"/>
      <line class="cls-6" x1="266.93" y1="178.3" x2="430.32" y2="341.69"/>
      <line class="cls-6" x1="312.94" y1="178.3" x2="449.2" y2="314.56"/>
      <line class="cls-6" x1="360.13" y1="179.48" x2="468.07" y2="287.42"/>
      <line class="cls-6" x1="23.92" y1="211.33" x2="226.23" y2="413.65"/>
      <line class="cls-6" x1="38.07" y1="179.48" x2="271.65" y2="413.06"/>
      <line class="cls-6" x1="82.9" y1="178.3" x2="312.35" y2="407.75"/>
      <line class="cls-6" x1="130.68" y1="180.07" x2="347.74" y2="397.13"/>
      <line class="cls-6" x1="174.92" y1="178.3" x2="378.42" y2="381.8"/>
      <line class="cls-6" x1="342.14" y1="399.2" x2="477.21" y2="264.12"/>
      <line class="cls-6" x1="281.98" y1="413.36" x2="491.96" y2="203.37"/>
      <line class="cls-6" x1="234.79" y1="414.53" x2="468.37" y2="180.96"/>
      <line class="cls-6" x1="195.27" y1="408.05" x2="422.36" y2="180.96"/>
      <line class="cls-6" x1="163.42" y1="393.89" x2="376.94" y2="180.37"/>
      <line class="cls-6" x1="132.74" y1="378.55" x2="332.11" y2="179.19"/>
      <line class="cls-6" x1="106.2" y1="359.09" x2="285.51" y2="179.78"/>
      <line class="cls-6" x1="80.25" y1="334.32" x2="236.56" y2="178.01"/>
      <line class="cls-6" x1="60.78" y1="307.77" x2="188.19" y2="180.37"/>
      <line class="cls-6" x1="46.04" y1="281.23" x2="148.08" y2="179.19"/>
      <line class="cls-6" x1="24.8" y1="213.99" x2="59.6" y2="179.19"/>
      <line class="cls-6" x1="33.65" y1="247.61" x2="97.35" y2="179.19"/>
      <line class="cls-2" x1="20.08" y1="179.19" x2="495.5" y2="179.19"/>
      <path class="cls-5" d="m21.85,179.19c0,129.43,106.51,235.94,235.94,235.94s235.94-106.51,235.94-235.94"/>
    </g>
  </g>
</svg>