<?xml version="1.0" encoding="UTF-8"?>
<svg id="Calque_2" data-name="Calque 2" xmlns="http://www.w3.org/2000/svg" viewBox="0 0 552.83 500.65">
  <defs>
    <style>
      .cls-1, .cls-2 {
        fill: none;
        stroke: #1d1d1b;
        stroke-miterlimit: 10;
      }

      .cls-2 {
        stroke-width: 10px;
      }

      .cls-3 {
        fill: #1d1d1b;
      }
    </style>
  </defs>
  <ellipse class="cls-1" cx="250.5" cy="250.33" rx="250" ry="249.83"/>
  <circle class="cls-2" cx="251.5" cy="250.44" r="224"/>
  <path class="cls-3" d="m68.99,216.53c53.88-12.39,106.5-38.99,163.1-33.31l-18.66-46.39c-8.25,12.39-19.88,21.74-30.45,32.03-11.24,10.95-21.72,22.66-31.61,34.84-19.68,24.23-36.99,50.26-53.83,76.51-1.93,3-3.85,6.01-5.76,9.02s-5.27,6.61-5.95,10.04c-.31,1.52.28,3.33.69,4.75,1.68,5.84,3.99,11.54,6.22,17.19s4.61,11.42,7.14,17.04c1.32,2.92,2.57,6.62,4.64,9.14,3.79,4.6,13.54,6.29,19.11,7.42,7.54,1.54,15.27,1.95,22.94,1.62,15.28-.67,30.29-4.22,44.92-8.48,15.08-4.38,30.04-9.29,44.83-14.56,32.97-11.75,65.11-26.23,93.74-46.58.7-.5-2.04-7.75-1.84-7.15-1.88-5.57-4.02-11.1-6.23-16.55-.69-1.69-10.16-22.99-10.59-22.69-25.93,18.43-54.78,32.08-84.51,43.21-14.78,5.53-29.76,10.48-44.83,15.15-14.87,4.61-29.98,8.84-45.5,10.58-8.54.96-17.2,1.14-25.74.04-4.21-.55-8.38-1.4-12.45-2.61-3.35-1-9.93-2.27-11.83-5.48,6,14.91,12,29.82,18,44.73-.08-2.03,2.02-4.3,3.03-5.89,1.28-2,2.55-4.01,3.83-6.01,2.24-3.51,4.48-7.02,6.74-10.52,4.83-7.51,9.7-14.99,14.67-22.41,9.58-14.32,19.49-28.43,30.05-42.05s21.69-26.65,33.75-38.88,25.96-22.73,35.5-37.05c.67-1.01-1.82-7.07-1.84-7.15-1.88-5.57-4.02-11.1-6.23-16.55s-4.46-10.92-6.97-16.25c-.54-1.15-2.31-6.3-3.62-6.44-56.59-5.68-109.21,20.92-163.1,33.31-1,.23,7.37,21.97,8.07,23.7,2.21,5.46,4.46,10.92,6.97,16.25.4.84,2.72,6.64,3.62,6.44h0Z"/>
  <path class="cls-3" d="m257.83,250.64c-.36-11.72,1.94-23.58,4.55-34.95,3.18-13.81,7.36-27.49,12.95-40.53,4.33-10.11,9.3-19.41,17.5-26.77,1.19-1.06,1.72-2.02,2.45-3.36.32-.58.88-1.04,1.17-1.57-11.76,5.33-23.53,10.67-35.29,16l1.94-.12c1.48.1,2.89.35,4.31.78,8.46,2.57,14.56,10.1,18.86,17.43,5.29,9,8.58,19.16,9.56,29.55,1.04,11.07-.71,22.32,3.59,32.89.57,1.4,21.61-8.11,23.4-8.92,5.37-2.41,10.75-4.86,15.98-7.57,1.31-.68,5.98-2.38,6.29-3.88,5.11-25.3,10.81-52.44,27.5-72.97,4.22-5.19,9.18-9.69,14.68-13.49,2.66-1.84,5.23-3.32,7.14-4.33,3.29-1.73-1.63.74,1.74-.85.47-.22,3.17-1.48.46-.22-3.97,1.89-7.99,3.69-12.05,5.38-11.45,2.61-14.83,4.28-10.15,5,6.7,2.8,10.96,7.14,13.89,13.9,2.7,6.21,3.68,13.04,3.96,19.77.5,12.14.53,24.15,1.68,36.27.04.44,21.67-8.14,23.4-8.92,5.37-2.41,10.75-4.86,15.98-7.57.97-.5,6.39-2.75,6.29-3.88-1.17-12.38-1.08-24.66-1.71-37.05-.67-13.25-7.09-37.67-25.16-32.06-16.69,5.18-32.67,13.45-48.28,21.26-8.63,4.32-17.38,8.88-25.02,14.83-11.76,9.15-20.2,21.7-26.05,35.28-6.87,15.95-10.52,33.06-13.95,50.01,15.22-6.79,30.44-13.58,45.66-20.37-4.3-10.56-2.56-21.82-3.59-32.89-.94-10.11-4.09-20.01-9.13-28.82-4.72-8.25-12.06-17.45-22.15-18.8-5.32-.71-10.28,1.32-15.16,3.17-13.24,5.03-26.77,10.73-39.09,17.76-4.49,2.57-6.31,6.03-9.93,9.3-4.03,3.64-7.14,8.24-9.83,12.91-7.57,13.17-12.58,27.92-16.61,42.5s-7.89,30.75-7.42,46.26c0,.18,21.62-8.12,23.4-8.92,5.37-2.41,10.75-4.86,15.98-7.57,1.03-.54,6.32-2.67,6.29-3.88h0Z"/>
  <g>
    <path class="cls-3" d="m215.83,393.94c1.45.99,2.47,2.65,3.04,5,1.73,7.19,2.6,10.78,4.33,17.96-2.88.66-4.33.98-7.22,1.61-1.45-6.31-2.18-9.47-3.63-15.78-.33-1.45-.77-2.43-1.32-2.94s-1.29-.66-2.24-.46c-1.27.27-2.67,1.12-4.2,2.53.01.07.02.1.04.16,1.58,7.22,2.37,10.83,3.95,18.05-2.9.6-4.35.89-7.26,1.45-1.32-6.34-1.98-9.51-3.29-15.84-.3-1.46-.72-2.45-1.25-2.97-.53-.52-1.27-.69-2.22-.51-1.37.26-2.8,1.08-4.28,2.44,1.44,7.31,2.16,10.97,3.6,18.29-2.92.53-4.38.79-7.3,1.29-1.82-9.81-2.73-14.71-4.56-24.52,2.77-.77,4.15-1.16,6.91-1.95.17.85.25,1.28.42,2.13,2.09-2.04,4.4-3.31,6.96-3.81,2.63-.51,4.7.02,6.24,1.6,1.2-1.16,2.44-2.12,3.72-2.88,1.28-.76,2.66-1.31,4.14-1.63,2.17-.47,3.98-.22,5.44.77Z"/>
    <path class="cls-3" d="m233.15,413.51c-2.15-.7-3.93-1.92-5.34-3.67-1.41-1.75-2.41-3.84-3.01-6.26-.77-3.11-.81-5.75-.14-7.95.68-2.19,1.84-3.94,3.5-5.25,1.66-1.31,3.64-2.26,5.96-2.86,2.59-.67,4.92-.7,7.01-.09,2.09.61,3.85,1.76,5.29,3.45,1.44,1.69,2.53,3.8,3.26,6.34.85,2.97.99,5.57.41,7.8-.59,2.23-1.74,4.05-3.45,5.45-1.71,1.4-3.81,2.43-6.28,3.07-2.65.68-5.06.67-7.22-.03Zm9.62-8.59c.4-1.55.28-3.48-.35-5.77-.67-2.44-1.59-4.18-2.75-5.22-1.16-1.04-2.57-1.34-4.26-.91-1.83.47-2.99,1.43-3.5,2.88-.51,1.45-.44,3.42.2,5.91.61,2.34,1.52,4.07,2.73,5.19,1.21,1.12,2.7,1.45,4.47.99,1.9-.49,3.06-1.52,3.46-3.07Z"/>
    <path class="cls-3" d="m266.63,378.72c.53,3.04.8,4.56,1.32,7.61-.61-.04-1.16-.05-1.63-.02-.48.03-1,.14-1.58.32-.89.27-1.68.76-2.38,1.46-.7.7-1.28,1.74-1.76,3.13,1.79,5.85,2.69,8.78,4.49,14.63-2.83.85-4.24,1.26-7.08,2.08-2.83-9.58-4.24-14.37-7.07-23.94,2.65-1.07,3.98-1.61,6.62-2.7.41,1.35.62,2.02,1.03,3.36.96-2.93,2.67-4.77,5.16-5.55.98-.3,1.94-.43,2.88-.38Z"/>
    <path class="cls-3" d="m295.83,391.41c1.55-.04,2.87.27,3.98.92,1.11.65,1.94,1.74,2.51,3.28.64,1.75.66,3.47.04,5.16s-1.82,3.25-3.6,4.67c-1.78,1.42-4.06,2.61-6.83,3.55-3.57,1.22-6.71,1.63-9.39,1.27-2.68-.36-4.39-1.71-5.14-4.01-.43-1.31-.45-2.52-.09-3.64.36-1.11.99-2.17,1.89-3.16-1.19-.47-1.97-1.28-2.34-2.41-.23-.71-.24-1.47-.04-2.28.21-.81.69-1.73,1.45-2.76-1.65-.28-3.02-.93-4.12-1.92-1.1-1-1.89-2.26-2.39-3.78-.66-2.02-.68-3.85-.07-5.5.61-1.64,1.66-3.05,3.16-4.23,1.49-1.18,3.25-2.11,5.27-2.8,1.16-.4,2.15-.64,2.98-.73,2.65-2.5,3.96-3.76,6.56-6.29,1.57,1.93,2.36,2.89,3.94,4.81-1.69,1.14-2.55,1.71-4.25,2.84,2.18.76,3.7,2.29,4.54,4.6.7,1.93.75,3.68.14,5.26-.61,1.58-1.66,2.96-3.16,4.11-1.5,1.16-3.26,2.08-5.27,2.76-.92.31-1.81.55-2.66.72-.08.42-.09.76,0,1,.1.28.27.48.52.59.25.11.64.15,1.18.1s1.28-.19,2.23-.43c1.4-.34,2.1-.5,3.49-.85,2.11-.53,3.93-.82,5.48-.86Zm-1.49,10.36c.8-.79,1.06-1.59.77-2.4-.17-.49-.45-.83-.84-1.01s-.96-.24-1.7-.17c-.75.06-1.79.25-3.12.54-1.21.3-1.81.44-3.02.73-.52.13-1.29.26-2.3.36-.14.59-.21,1.17-.21,1.72,0,.55.06,1.02.19,1.41.31.92.93,1.48,1.87,1.68.94.2,2.44-.05,4.51-.75,1.76-.6,3.05-1.3,3.85-2.1Zm-15.76-17.77c.4,1.2,1.07,1.95,2,2.25.93.3,2.11.2,3.56-.29,1.45-.49,2.39-1.14,2.82-1.94.43-.8.45-1.76.05-2.89-.41-1.16-1.08-1.92-2.01-2.29-.93-.37-2.07-.32-3.44.15-2.79.95-3.79,2.61-2.98,5.01Z"/>
    <path class="cls-3" d="m313.44,363.43c1.93.61,3.46,2.27,4.57,4.99,2.67,6.56,4.01,9.84,6.68,16.4-2.33.95-3.49,1.42-5.83,2.34-.51-.64-.76-.96-1.27-1.6-.88,1.43-1.87,2.58-2.97,3.44-1.09.86-2.33,1.56-3.69,2.08-1.43.55-2.81.74-4.11.6-1.3-.15-2.44-.61-3.41-1.39-.97-.77-1.69-1.81-2.17-3.1-1.02-2.76-.48-5.35,1.59-7.77,2.07-2.43,5.17-4.53,9.28-6.36-.09-.23-.14-.34-.23-.57-.38-.97-.78-1.7-1.18-2.18-.4-.48-.88-.76-1.45-.84-.56-.08-1.26.04-2.09.36-2.08.81-4.11,2.6-6.11,5.38-1.69-1.32-2.53-1.99-4.2-3.32,1.33-1.88,2.72-3.44,4.19-4.67,1.46-1.23,3.19-2.24,5.18-3.01,2.87-1.12,5.27-1.39,7.2-.78Zm-4.11,21.72c.6.23,1.33.18,2.18-.15,1.4-.54,2.76-1.61,4.06-3.2-.71-1.81-1.07-2.71-1.79-4.52-2.41,1.11-4.07,2.21-4.97,3.32-.9,1.11-1.17,2.12-.82,3.06.29.77.74,1.26,1.34,1.49Z"/>
    <path class="cls-3" d="m340.15,351.94c1.65.66,2.99,2.1,4.02,4.33,3.06,6.71,4.59,10.06,7.66,16.77-2.68,1.23-4.02,1.84-6.71,3.05-2.63-5.92-3.94-8.88-6.57-14.81-.42-.95-.84-1.65-1.26-2.1-.42-.45-.89-.7-1.42-.74-.53-.05-1.19.1-1.97.45-1.31.58-2.61,1.8-3.92,3.66,2.92,6.8,4.38,10.19,7.3,16.99-2.71,1.17-4.06,1.75-6.78,2.88-3.85-9.22-5.77-13.83-9.62-23.05,2.51-1.37,3.76-2.06,6.26-3.45.39.9.58,1.35.97,2.26.86-1.3,1.8-2.44,2.81-3.42,1.02-.97,2.16-1.75,3.45-2.32,2.22-.99,4.14-1.16,5.8-.51Z"/>
    <path class="cls-3" d="m360.31,379.63c-1.05-2.25-1.57-3.37-2.61-5.62,9.33-4.39,13.96-6.67,23.13-11.43,1.13,2.21,1.69,3.31,2.82,5.52-9.25,4.79-13.91,7.1-23.33,11.53Z"/>
    <path class="cls-3" d="m388.98,325.76c.65,1.17.98,1.76,1.63,2.93-.87,7.61-1.36,11.42-2.45,19.06,3.94-2.15,5.9-3.24,9.81-5.45,1.22,2.21,1.84,3.31,3.06,5.52-7.6,4.31-11.43,6.4-19.16,10.45-.63-1.23-.95-1.85-1.58-3.08,1.27-7.6,1.86-11.4,2.92-18.98-3.68,2.01-5.53,3-9.24,4.96-.88-2.39-1.31-3.59-2.2-5.98,6.94-3.66,10.39-5.54,17.22-9.42Z"/>
    <path class="cls-3" d="m406.92,314.79c1.2,2.85,1.8,4.28,3,7.13-.6.11-1.13.23-1.59.38-.45.15-.94.38-1.46.69-.8.48-1.45,1.15-1.97,2-.52.85-.85,2.01-1,3.48,3.06,5.3,4.59,7.95,7.64,13.25-2.55,1.51-3.82,2.25-6.38,3.73-4.9-8.7-7.35-13.05-12.25-21.75,2.33-1.68,3.49-2.52,5.8-4.23l1.76,3.05c.27-3.1,1.51-5.31,3.75-6.67.88-.53,1.78-.88,2.71-1.06Z"/>
    <path class="cls-3" d="m428.85,314.93c5.96,2.4,8.96,3.57,15,5.85.1.15.15.22.24.37-2.91,1.96-4.37,2.93-7.3,4.84-5.57-2.33-8.34-3.52-13.83-5.95,2.63,4.25,3.94,6.38,6.57,10.64-2.5,1.59-3.75,2.38-6.27,3.94-6.61-10.96-13.22-21.92-19.83-32.89,2.23-1.72,3.34-2.59,5.55-4.34,5.31,8.6,7.97,12.91,13.28,21.51.6-5.72.87-8.58,1.35-14.29,2.56-1.68,3.84-2.52,6.38-4.23.09.13.13.2.21.33-.48,5.67-.75,8.52-1.36,14.21Z"/>
  </g>
</svg>