<?xml version="1.0" encoding="UTF-8"?>
<svg id="Calque_6" data-name="Calque 6" xmlns="http://www.w3.org/2000/svg" viewBox="0 0 416.71 465.1">
  <defs>
    <style>
      .cls-1 {
        fill: #d97926;
      }

      .cls-1, .cls-2, .cls-3, .cls-4, .cls-5, .cls-6, .cls-7, .cls-8, .cls-9 {
        stroke: #000;
        stroke-miterlimit: 10;
      }

      .cls-2 {
        stroke-width: 3.01px;
      }

      .cls-2, .cls-3, .cls-5, .cls-6 {
        fill: none;
      }

      .cls-4 {
        fill: #4ca000;
      }

      .cls-5 {
        stroke-width: 3px;
      }

      .cls-6 {
        stroke-width: 2px;
      }

      .cls-7 {
        fill: #803f13;
      }

      .cls-8 {
        fill: #e00000;
      }

      .cls-9 {
        fill: #f3e600;
      }
    </style>
  </defs>
  <g id="Pannier">
    <g>
      <path class="cls-7" d="m250.16,259.15l-9.79,9.84v.02c-39.53,3.43-65.97-4.37-24.27-20.85,7.41-3.92,13.09-6.71,17.66-8.84l-7.96,12.34,13.69-5.2-7.87,12.75,18.55-.06Z"/>
      <path class="cls-7" d="m360.86,62.4l-2.52,6.53-9.01-5.79-.98,9.65-7.88-10.55-7.1,8.6c-2.96-29.07-8.35-46.28,4.06-34.57,3.04,2.47,5.96,5.13,8.77,7.95,5.58,5.64,10.47,11.72,14.67,18.17Z"/>
      <path class="cls-9" d="m333.45,236.43c-19.53,19.36-60.68,29.73-93.08,32.56l9.79-9.84-18.55.06,7.87-12.75-13.69,5.2,7.96-12.34v-.02c19.99-9.31,18.71-5.79,48.08-27.39,54.93-40.39,55.56-101.24,51.59-140.62,0-.15-.02-.28-.06-.43l7.1-8.6,7.88,10.55.98-9.65,9.01,5.79,2.52-6.53c32.99,50.83,22.82,124.21-27.41,174.02Z"/>
      <path class="cls-4" d="m55.85,98.99S-.92,67.23.53,52.88c1.63-16.23,52.26,21.71,50.55,18.47-5.28-9.95-25.04-57.52-15.85-64.04C45.82-.2,75.81,58.23,75.81,58.23c3.53-1.87,2.14-55.21,14.72-57.61,18.95-3.61,11.31,75.48,11.31,75.48"/>
      <path class="cls-1" d="m30.73,118.37c9.88-13.85,84.59-53.92,111.95-53.99,19.82-.05,47.25,200.47,36.65,206.09-10.6,5.62-164.17-130.26-148.59-152.11Z"/>
      <line class="cls-3" x1="103.77" y1="179.24" x2="122.45" y2="137.63"/>
      <line class="cls-3" x1="82.75" y1="163.87" x2="106.02" y2="113.84"/>
      <line class="cls-3" x1="121.62" y1="200.27" x2="140.3" y2="158.67"/>
      <path class="cls-5" d="m251.65,115.16s-4.29-21.88,18.63-22.98"/>
      <path class="cls-8" d="m239.73,204.38c-3.33-1.68-4.7-5.44-5.13-8.86-2.56,4.53-8.77,5.82-9.16,5.9h-.01c-75.12-21.15-61.34-114.62.27-105.34,22.25,3.35,11.88,18.28,25.95,19.08,14.74.84,8.38-15.14,33.38-10.14,61.85,12.35,37.64,110.91-45.3,99.36Z"/>
      <line class="cls-6" x1="35.46" y1="165.2" x2="133.96" y2="263.7"/>
      <line class="cls-6" x1="339.46" y1="79.2" x2="403.96" y2="143.7"/>
      <line class="cls-6" x1="379.46" y1="80.2" x2="412.46" y2="113.2"/>
      <line class="cls-6" x1="184.46" y1="80.2" x2="339.96" y2="235.7"/>
      <line class="cls-6" x1="222.96" y1="79.7" x2="361.46" y2="218.2"/>
      <line class="cls-6" x1="261.96" y1="79.7" x2="377.46" y2="195.2"/>
      <line class="cls-6" x1="301.96" y1="80.7" x2="393.46" y2="172.2"/>
      <line class="cls-6" x1="16.96" y1="107.7" x2="188.46" y2="279.2"/>
      <line class="cls-6" x1="28.96" y1="80.7" x2="226.96" y2="278.7"/>
      <line class="cls-6" x1="66.96" y1="79.7" x2="261.46" y2="274.2"/>
      <line class="cls-6" x1="107.46" y1="81.2" x2="291.46" y2="265.2"/>
      <line class="cls-6" x1="144.96" y1="79.7" x2="317.46" y2="252.2"/>
      <line class="cls-6" x1="286.71" y1="266.95" x2="401.21" y2="152.45"/>
      <line class="cls-6" x1="235.71" y1="278.95" x2="413.71" y2="100.95"/>
      <line class="cls-6" x1="195.71" y1="279.95" x2="393.71" y2="81.95"/>
      <line class="cls-6" x1="162.21" y1="274.45" x2="354.71" y2="81.95"/>
      <line class="cls-6" x1="135.21" y1="262.45" x2="316.21" y2="81.45"/>
      <line class="cls-6" x1="109.21" y1="249.45" x2="278.21" y2="80.45"/>
      <line class="cls-6" x1="86.71" y1="232.95" x2="238.71" y2="80.95"/>
      <line class="cls-6" x1="64.71" y1="211.95" x2="197.21" y2="79.45"/>
      <line class="cls-6" x1="48.21" y1="189.45" x2="156.21" y2="81.45"/>
      <line class="cls-6" x1="35.71" y1="166.95" x2="122.21" y2="80.45"/>
      <line class="cls-6" x1="17.71" y1="109.95" x2="47.21" y2="80.45"/>
      <line class="cls-6" x1="25.21" y1="138.45" x2="79.21" y2="80.45"/>
      <line class="cls-2" x1="13.71" y1="80.45" x2="416.71" y2="80.45"/>
      <path class="cls-5" d="m15.21,80.45c0,109.72,90.28,200,200,200s200-90.28,200-200"/>
      <g>
        <path d="m61.71,347.31c-.38-.58-.85-1.15-1.4-1.73-.55-.58-.8-1.13-.76-1.66.14-2.88.37-5.77.68-8.68.31-2.9.54-5.8.68-8.68.05-.72-.11-1.48-.47-2.27-.36-.79-.76-1.5-1.19-2.12-.62-.96-.82-1.72-.58-2.27s1.08-1.07,2.52-1.55c.14-2.06.29-4.1.43-6.12.14-2.02.29-4.05.43-6.12,0-.67-.24-1.2-.72-1.58-1.2-.82-1.74-1.64-1.62-2.48.12-.84.56-1.72,1.33-2.63,1.3-1.63,2.78-2.95,4.46-3.96,1.68-1.01,3.5-1.75,5.47-2.23,2.26-.58,4.5-1.08,6.73-1.51,2.23-.43,4.52-.31,6.88.36,2.83.86,3.74,2.76,2.74,5.69-.19,0-.41.01-.65.04-.24.02-.43.01-.58-.04-1.54-.96-3.02-1.46-4.46-1.51-1.44-.05-2.86.17-4.25.65-1.39.48-2.77,1.03-4.14,1.66-1.37.62-2.75,1.08-4.14,1.37-1.01.19-1.8.66-2.38,1.4s-.55,1.88.07,3.42c.38.96.44,2.06.18,3.31-.26,1.25-.44,2.45-.54,3.6-.05.91-.06,1.84-.04,2.77.02.94.04,1.96.04,3.06,2.74-.38,5.4-.79,7.99-1.22,2.59-.43,5.21-.77,7.85-1.01,1.01-.1,2.04-.04,3.1.18,1.06.22,2.11.44,3.17.68.24.05.47.26.68.65.22.38.32.72.32,1.01.05.19-.07.43-.36.72s-.55.48-.79.58c-3.6.62-7.21,1.25-10.84,1.87-3.62.62-7.38,1.27-11.27,1.94-.19,2.64-.38,5.28-.58,7.92-.19,2.64-.38,5.3-.58,7.99-.1,1.01-.18,2.03-.25,3.06s-.25,2.03-.54,2.99c-.14.48-.5.91-1.08,1.3-.58.38-1.1.77-1.58,1.15Z"/>
        <path d="m101.88,346.01c-.77,0-1.49-.5-2.16-1.51-.34-.53-.65-1.08-.94-1.66s-.48-1.18-.58-1.8c-.24-1.87-.54-3.9-.9-6.08-.36-2.18-.67-4.39-.94-6.62-.26-2.23-.4-4.28-.4-6.16v-1.08c0-.33.02-.67.07-1.01.1-.67.22-1.24.36-1.69.14-.46.48-.85,1.01-1.19.62-.34,1.18-.5,1.66-.5.82,0,1.46.5,1.94,1.51.19.29.33.85.43,1.69.1.84.24,1.6.43,2.27.53-1.25.98-2.26,1.37-3.02.38-.77.74-1.39,1.08-1.87,1.82-2.45,3.9-4.37,6.23-5.76,2.33-1.39,5.03-2.09,8.1-2.09.82,0,1.56.08,2.23.25.67.17,1.1.66,1.3,1.48.1.38,0,.84-.29,1.37-.29.53-.67.96-1.15,1.3-.48.34-.98.46-1.51.36-.58-.19-1.18-.29-1.8-.29-1.2,0-2.28.3-3.24.9-.96.6-1.9,1.31-2.81,2.12-1.68,1.39-3.24,3.06-4.68,5-1.44,1.94-2.23,4.04-2.38,6.3-.1,1.78-.16,3.72-.18,5.83-.03,2.11-.04,4.01-.04,5.69l-.07,4.32c-.48,1.3-1.2,1.94-2.16,1.94Z"/>
        <path d="m145.42,344.93c-.62,0-1.08-.31-1.37-.94-.34-.67-.65-1.37-.94-2.09-.29-.72-.55-1.46-.79-2.23-.19-.77-.32-1.68-.4-2.74-.07-1.05-.16-1.97-.25-2.74-.58.53-1.15,1.2-1.73,2.02-.58.82-1.15,1.46-1.73,1.94-1.54,1.1-3.02,2.12-4.46,3.06-1.44.94-2.93,1.4-4.46,1.4-1.34,0-2.62-.36-3.82-1.08-1.2-.72-2.19-1.75-2.95-3.1-.72-1.15-1.3-2.51-1.73-4.07-.43-1.56-.74-3.17-.94-4.82-.19-1.66-.29-3.16-.29-4.5,0-.82.05-1.66.14-2.52.1-.86.24-1.7.43-2.52.48-1.73,1.39-2.59,2.74-2.59.91,0,1.61.4,2.09,1.19s.6,1.45.36,1.98c-.29.91-.49,1.81-.61,2.7-.12.89-.18,1.76-.18,2.63,0,1.34.12,2.69.36,4.03.24,1.34.55,2.69.94,4.03.19.62.46,1.22.79,1.8.34.58.67,1.13,1.01,1.66.58.86,1.18,1.3,1.8,1.3.48,0,1.01-.22,1.58-.65,1.68-1.34,3.24-2.77,4.68-4.28s2.6-3.19,3.49-5.04c.89-1.85,1.36-3.92,1.4-6.23.05-.38.07-.77.07-1.15s.19-.62.58-.72c.53-.1,1.07-.14,1.62-.14s1,.1,1.33.29c.58.34,1.03.77,1.37,1.3.33.53.46,1.2.36,2.02-.1.62-.16,1.04-.18,1.26-.02.22-.01.38.04.5.05.12.1.4.14.83.43,5.33.79,10.73,1.08,16.2,0,.48-.11.94-.32,1.37-.22.43-.64.65-1.26.65Z"/>
        <path d="m189.27,348.1c-.62.14-1.19-.06-1.69-.61-.5-.55-.8-1.28-.9-2.2-.05-1.15-.08-2.29-.11-3.42-.02-1.13-.08-2.27-.18-3.42-.1-.91-.22-2.15-.36-3.71-.14-1.56-.29-3.12-.43-4.68-.14-1.56-.29-2.75-.43-3.56-.43,1.1-.82,2.03-1.15,2.77-.34.75-.65,1.44-.94,2.09-.29.65-.5,1.09-.65,1.33-.91,1.49-1.91,2.91-2.99,4.25-1.08,1.34-2.34,2.57-3.78,3.67-1.97,1.44-4.06,2.38-6.26,2.81-2.21.43-4.46.55-6.77.36-2.45-.24-4.44-1.19-5.98-2.84s-2.4-3.73-2.59-6.23c-.19-3.65.25-7.01,1.33-10.08,1.08-3.07,3.16-5.71,6.23-7.92,1.44-1.06,2.66-1.51,3.67-1.37,1.01.14,1.75.62,2.23,1.44.58.91.71,1.85.4,2.81-.31.96-1.09,1.61-2.34,1.94-1.63.48-2.86,1.27-3.67,2.38-.82,1.11-1.49,2.33-2.02,3.67-.34.77-.58,1.56-.72,2.38-.14.82-.26,1.63-.36,2.45-.34,2.3.17,4.14,1.51,5.51,1.34,1.37,3.17,1.91,5.47,1.62.91-.14,1.82-.35,2.74-.61s1.75-.61,2.52-1.04c2.16-1.15,4.13-2.68,5.9-4.57,1.77-1.9,3.24-4.06,4.39-6.48,1.15-2.42,1.87-5.01,2.16-7.78.29-2.76.02-5.53-.79-8.32-.62-.14-1.5-.13-2.63.04-1.13.17-2.24.38-3.35.65s-1.99.47-2.66.61c-.62.14-1.04,0-1.26-.43s-.3-.92-.25-1.48.14-.9.29-1.04c.29-.29.89-.56,1.8-.83.91-.26,1.88-.5,2.92-.72s1.94-.38,2.74-.5c.79-.12,1.24-.2,1.33-.25.67-.33.95-.98.83-1.94-.12-.96-.41-2-.86-3.13-.46-1.13-.9-2.15-1.33-3.06-.43-.91-.62-1.46-.58-1.66.14-.82.54-1.24,1.19-1.26.65-.02,1.37.17,2.16.58.79.41,1.4.9,1.84,1.48.38.48.64,1.14.76,1.98.12.84.23,1.69.32,2.56.1.86.25,1.57.47,2.12.22.55.61.8,1.19.76.62-.1,1.46-.25,2.52-.47,1.05-.22,2.18-.46,3.38-.72,1.2-.26,2.34-.49,3.42-.68,1.08-.19,1.93-.31,2.56-.36.96,0,1.9.29,2.81.86.33.19.61.49.83.9.22.41.3.8.25,1.19-.05.29-.24.59-.58.9-.34.31-.67.52-1.01.61-.67.19-1.37.3-2.09.32-.72.03-1.44.06-2.16.11-1.58.1-3.14.36-4.68.79s-3.22.98-5.04,1.66c.33,2.5.66,4.88.97,7.16.31,2.28.56,4.55.76,6.8.33,2.88.62,5.77.86,8.68.24,2.91.48,5.8.72,8.68.05,1.2.05,2.45,0,3.74,0,.62-.12,1.2-.36,1.73-.24.53-.74.86-1.51,1.01Z"/>
        <path d="m229.23,344.93c-.62,0-1.08-.31-1.37-.94-.34-.67-.65-1.37-.94-2.09-.29-.72-.55-1.46-.79-2.23-.19-.77-.32-1.68-.4-2.74-.07-1.05-.16-1.97-.25-2.74-.58.53-1.15,1.2-1.73,2.02-.58.82-1.15,1.46-1.73,1.94-1.54,1.1-3.02,2.12-4.46,3.06-1.44.94-2.93,1.4-4.46,1.4-1.34,0-2.62-.36-3.82-1.08-1.2-.72-2.19-1.75-2.95-3.1-.72-1.15-1.3-2.51-1.73-4.07-.43-1.56-.74-3.17-.94-4.82-.19-1.66-.29-3.16-.29-4.5,0-.82.05-1.66.14-2.52.1-.86.24-1.7.43-2.52.48-1.73,1.39-2.59,2.74-2.59.91,0,1.61.4,2.09,1.19s.6,1.45.36,1.98c-.29.91-.49,1.81-.61,2.7-.12.89-.18,1.76-.18,2.63,0,1.34.12,2.69.36,4.03.24,1.34.55,2.69.94,4.03.19.62.46,1.22.79,1.8.34.58.67,1.13,1.01,1.66.58.86,1.18,1.3,1.8,1.3.48,0,1.01-.22,1.58-.65,1.68-1.34,3.24-2.77,4.68-4.28s2.6-3.19,3.49-5.04c.89-1.85,1.36-3.92,1.4-6.23.05-.38.07-.77.07-1.15s.19-.62.58-.72c.53-.1,1.07-.14,1.62-.14s1,.1,1.33.29c.58.34,1.03.77,1.37,1.3.33.53.46,1.2.36,2.02-.1.62-.16,1.04-.18,1.26-.02.22-.01.38.04.5.05.12.1.4.14.83.43,5.33.79,10.73,1.08,16.2,0,.48-.11.94-.32,1.37-.22.43-.64.65-1.26.65Z"/>
        <path d="m240.69,347.81c-.53.05-1.08.1-1.66.14-.58.05-1.15.07-1.73.07-.91-.1-1.73-.41-2.45-.94-.72-.53-.98-1.15-.79-1.87.1-.29.38-.58.86-.86.48-.29.89-.41,1.22-.36,1.82.19,3.64.18,5.44-.04,1.8-.22,3.59-.54,5.36-.97,1.2-.29,2.4-.64,3.6-1.04,1.2-.41,2.33-.9,3.38-1.48,3.12-1.63,3.29-3.65.5-6.05-.96-.82-1.93-1.61-2.92-2.38-.98-.77-1.96-1.54-2.92-2.3-1.63-1.25-2.94-2.66-3.92-4.25-.98-1.58-1.74-3.33-2.27-5.26-.34-1.2-.26-2.46.22-3.78.48-1.32,1.25-2.36,2.3-3.13,2.4-1.87,4.92-2.83,7.56-2.88,2.64-.05,5.14.86,7.49,2.74.67.48,1.24,1.09,1.69,1.84.46.75.9,1.48,1.33,2.2.24.62.14,1.18-.29,1.66-.43.48-1.06.46-1.87-.07-.58-.38-1.12-.82-1.62-1.3-.5-.48-1.04-.89-1.62-1.22-1.1-.67-2.32-1.01-3.64-1.01s-2.54.25-3.67.76c-1.13.5-2.03,1.26-2.7,2.27-.34.58-.57,1.14-.68,1.69-.12.55-.04,1.17.25,1.84.82,1.83,1.6,3.18,2.34,4.07.74.89,1.52,1.6,2.34,2.12.82.53,1.73,1.14,2.74,1.84,1.01.7,2.18,1.76,3.53,3.2.96,1.01,1.63,2.15,2.02,3.42.38,1.27.42,2.53.11,3.78-.31,1.25-1.09,2.3-2.34,3.17-1.92,1.34-3.96,2.29-6.12,2.84-2.16.55-4.37,1.02-6.62,1.4-.67.14-1.31.22-1.91.22s-1.45-.02-2.56-.07Z"/>
        <path d="m299.94,345.51c-.86,0-1.74-.14-2.63-.43-.89-.29-1.76-.67-2.63-1.15-2.5-1.3-4.26-2.96-5.29-5-1.03-2.04-1.55-4.28-1.55-6.73,0-.72-.03-1.26-.07-1.62-.05-.36-.17-.79-.36-1.3-.19-.5-.53-1.26-1.01-2.27-.34-.82-.3-1.67.11-2.56.41-.89.85-1.33,1.33-1.33.82.14,1.43-.06,1.84-.61.41-.55.78-1.07,1.12-1.55.67-1.06,1.42-2.18,2.23-3.38.82-1.2,1.75-2.33,2.81-3.38,2.35-1.97,4.78-2.95,7.27-2.95s4.99.75,7.49,2.23c.58.29,1.1.86,1.58,1.73.48.86.72,1.85.72,2.95,0,.91-.31,1.84-.94,2.77-.62.94-1.37,1.79-2.23,2.56-.86.77-1.7,1.34-2.52,1.73-2.06,1.25-4.34,2.35-6.84,3.31-2.5.96-4.95,1.78-7.34,2.45-.43,1.3-.38,2.7.14,4.21.53,1.51,1.36,2.82,2.48,3.92,1.13,1.1,2.34,1.66,3.64,1.66s2.56-.44,3.92-1.33c1.37-.89,2.94-1.91,4.72-3.06.67-.67,1.32-1.01,1.94-1.01.58,0,1.05.3,1.44.9.38.6.58,1.04.58,1.33,0,.62-.46,1.39-1.37,2.3s-2.03,1.79-3.35,2.63c-1.32.84-2.64,1.55-3.96,2.12-1.32.58-2.41.86-3.28.86Zm-5.76-19.3c1.05-.34,2.29-.78,3.71-1.33,1.42-.55,2.86-1.18,4.32-1.87,1.46-.7,2.77-1.44,3.92-2.23,1.15-.79,1.99-1.62,2.52-2.48-.29-.67-.82-1.22-1.58-1.66-.77-.43-1.61-.71-2.52-.83-.91-.12-1.75-.08-2.52.11-.96.24-1.97.95-3.02,2.12-1.06,1.18-2.02,2.51-2.88,4-.86,1.49-1.51,2.88-1.94,4.18Z"/>
        <path d="m332.74,345.87c-1.54,0-2.93-.67-4.18-2.02-.82-.82-1.57-2.04-2.27-3.67-.7-1.63-1.3-3.31-1.8-5.04s-.92-3.14-1.26-4.25c-.38-1.25-.58-2.42-.58-3.53-.05-.67-.19-1.24-.43-1.69-.24-.46-.7-.83-1.37-1.12-.43-.24-.88-.56-1.33-.97-.46-.41-.71-.83-.76-1.26-.1-.62.11-1.12.61-1.48s1.07-.64,1.69-.83c.14-.1.31-.19.5-.29.19-.1.46-.19.79-.29.14-1.54.26-3.05.36-4.54.1-1.49.24-2.95.43-4.39.29-1.68.62-3.35,1.01-5,.38-1.66.79-3.3,1.22-4.93.29-1.25.94-1.87,1.94-1.87.67,0,1.24.23,1.69.68.46.46.68,1.09.68,1.91,0,.1-.1.56-.29,1.4-.19.84-.42,1.78-.68,2.81-.26,1.03-.48,1.91-.65,2.63s-.25,1.06-.25,1.01c-.19,1.34-.34,2.75-.43,4.21-.1,1.46-.24,3.04-.43,4.72.82-.29,1.59-.53,2.34-.72.74-.19,1.36-.38,1.84-.58.96-.43,1.76-.82,2.41-1.15.65-.34,1.31-.67,1.98-1.01.67-.34,1.49-.72,2.45-1.15.58-.29,1.28-.36,2.12-.22.84.14,1.26.6,1.26,1.37,0,.58-.22,1.09-.65,1.55-.43.46-.86.83-1.3,1.12-1.34.72-2.56,1.36-3.64,1.91-1.08.55-2.14,1.11-3.17,1.66-1.03.55-2.24,1.19-3.64,1.91-.53.19-.95.38-1.26.58-.31.19-.44.72-.4,1.58.05,1.39.25,3.08.61,5.08.36,1.99.85,3.94,1.48,5.83.62,1.9,1.32,3.42,2.09,4.57.53.82,1.06,1.22,1.58,1.22.67,0,1.43-.41,2.27-1.22.84-.82,1.72-1.68,2.63-2.59.43-.53.84-.82,1.22-.86.38-.05.77.03,1.15.22.48.48.67.86.58,1.15-.1.29-.22.62-.36,1.01-.48,1.39-1.14,2.62-1.98,3.67-.84,1.06-2,1.85-3.49,2.38-.43.14-.84.26-1.22.36-.38.1-.77.14-1.15.14Z"/>
        <path d="m83.9,432.56c-.91-.1-1.66-.66-2.23-1.69-.58-1.03-.94-1.93-1.08-2.7-.34-2.21-.6-4.44-.79-6.7-.19-2.25-.41-4.49-.65-6.7-.34-4.7-.7-9.38-1.08-14.04-.38-4.66-.77-9.29-1.15-13.9-.19-1.49-.54-2.66-1.04-3.53-.5-.86-.73-1.82-.68-2.88,0-.96.25-1.66.76-2.09.5-.43,1.12-.65,1.84-.65.67.05,1.32.3,1.94.76.62.46,1.03,1.02,1.22,1.69.33,1.3.62,2.65.86,4.07.24,1.42.46,2.82.65,4.21l.43,13.32c.19,3.12.41,6.23.65,9.32.24,3.1.46,6.18.65,9.25.1,1.49.17,2.96.22,4.43.05,1.46.46,2.87,1.22,4.21.29.53.34,1.1.14,1.73-.19.34-.46.73-.79,1.19-.34.46-.7.68-1.08.68Z"/>
        <path d="m109.23,431.91c-1.78,0-3.32-.07-4.64-.22-1.32-.14-2.84-.74-4.57-1.8-1.78-1.15-3.35-2.65-4.72-4.5-1.37-1.85-2.22-3.8-2.56-5.87-.05-2.06-.04-3.74.04-5.04s.29-2.44.65-3.42c.36-.98.88-1.98,1.55-2.99,1.68-2.98,3.8-5.44,6.37-7.38,2.57-1.94,5.32-2.92,8.24-2.92.91,0,1.7.19,2.38.58,2.06.34,3.46,1.27,4.18,2.81.72,1.54.72,3.14,0,4.82-.91,1.82-2.17,3.38-3.78,4.68-1.61,1.3-3.59,2.54-5.94,3.74-2.35,1.2-5.18,2.64-8.5,4.32.33,2.83,1.73,5.02,4.18,6.55s5.64,2.14,9.58,1.8c1.78-.14,3.38-.38,4.82-.72,1.44-.34,2.59-.42,3.46-.25.86.17,1.3.95,1.3,2.34,0,.62-.46,1.15-1.37,1.58-.91.43-2.03.79-3.35,1.08s-2.65.49-4,.61c-1.34.12-2.45.18-3.31.18Zm-11.52-18.22c3.12-1.06,5.9-2.36,8.35-3.92,2.45-1.56,4.2-3.73,5.26-6.52-.48-.05-.92-.08-1.33-.11-.41-.02-.8-.04-1.19-.04-4.46,0-8.16,3.53-11.09,10.58Z"/>
        <path d="m132.27,465.1c-1.34,0-2.56-.28-3.64-.83-1.08-.55-2.08-1.31-2.99-2.27-.58-.62-.97-1.27-1.19-1.94-.22-.67-.42-1.9-.61-3.67.29-.67.79-1.06,1.51-1.15.77.24,1.28.66,1.55,1.26.26.6.48,1.2.65,1.8.17.6.47,1,.9,1.19.91.58,1.72.91,2.41,1.01.7.1,1.4-.03,2.12-.36,1.82-.86,3.44-1.92,4.86-3.17,1.42-1.25,2.58-2.76,3.49-4.54,1.01-1.92,1.88-3.96,2.63-6.12.74-2.16,1.12-4.15,1.12-5.98,0-2.45-.49-4.5-1.48-6.16-.98-1.66-2.39-3.3-4.21-4.93-.96-.48-1.85-.7-2.66-.65-.82.05-1.63.18-2.45.4-.82.22-1.75.3-2.81.25-.48-.19-.91-.41-1.3-.65-.38-.24-.67-.55-.86-.94-.38-.77-.5-1.49-.36-2.16.14-.67.17-1.46.07-2.38-.58-.62-1.18-1.27-1.8-1.94-.62-.67-1.18-1.27-1.66-1.8-.34-.77-.46-1.34-.36-1.73.1-.38.26-.77.5-1.15.24-.38.38-.91.43-1.58-.05-.58-.08-1.14-.11-1.69-.02-.55-.04-1.09-.04-1.62,0-2.98.38-5.65,1.15-8.03.77-2.38,2-4.26,3.71-5.65,1.7-1.39,3.97-2.09,6.8-2.09.29,0,.58-.02.86-.07.29-.05.6-.14.94-.29.77-.72,1.51-1.56,2.23-2.52.72-.96,1.55-1.85,2.48-2.66.94-.82,2.1-1.32,3.49-1.51,1.05.43,1.76.77,2.12,1.01.36.24.54.62.54,1.15,0,.96-.07,1.56-.22,1.8-.14.24-.41.4-.79.47-.38.07-.91.32-1.58.76l-1.58,1.01c-.67.72-1.25,1.48-1.73,2.27-.48.79-.84,1.74-1.08,2.84,1.25,3.17,1.87,6.19,1.87,9.07,0,1.63-.21,3.29-.61,4.97-.41,1.68-1.2,3.31-2.38,4.9-1.18,1.58-2.89,3.07-5.15,4.46.1.48.55.74,1.37.79s1.61.26,2.38.65c3.02,1.44,5.2,3.53,6.52,6.26,1.32,2.74,2.03,5.76,2.12,9.07.14,3.7-.44,7.14-1.76,10.33-1.32,3.19-3.18,6.16-5.58,8.89-1.3,1.49-2.77,2.71-4.43,3.67-1.66.96-3.47,1.61-5.44,1.94Zm2.16-45.43c.62,0,1.28-.2,1.98-.61.7-.41,1.24-.88,1.62-1.4,1.78-2.3,2.78-5.11,3.02-8.42,0-1.06-.1-2.28-.29-3.67-.19-1.39-.61-2.62-1.26-3.67-.65-1.05-1.62-1.58-2.92-1.58-1.44.34-2.48,1.01-3.13,2.02-.65,1.01-1.31,1.94-1.98,2.81-.34,1.3-.65,2.59-.94,3.89s-.43,2.57-.43,3.82c0,1.1.12,2.18.36,3.24.24,1.06.67,1.92,1.3,2.59.62.67,1.51,1.01,2.66,1.01Z"/>
        <path d="m166.07,433.2c-.86,0-1.73-.28-2.59-.83-.86-.55-1.75-1.28-2.66-2.2-1.39-1.44-2.34-3.08-2.84-4.93-.5-1.85-.9-3.71-1.19-5.58-.1-.77-.16-1.52-.18-2.27s-.04-1.5-.04-2.27v-5.94c0-1.42-.03-2.82-.07-4.21-.24-2.69.82-3.98,3.17-3.89.96.05,1.62.23,1.98.54.36.31.54,1,.54,2.05-.05,1.49-.13,3.01-.25,4.57-.12,1.56-.23,3.11-.32,4.64-.1,2.21-.1,4.2,0,5.98.09,1.78.43,3.5,1.01,5.18.43,1.11.9,2.15,1.4,3.13.5.98,1.07,1.48,1.69,1.48.48,0,1.03-.38,1.66-1.15.96-1.25,1.66-2.58,2.09-4s.77-2.87,1.01-4.36c.29-1.78.49-3.55.61-5.33.12-1.78.2-3.55.25-5.33,0-.72.23-1.28.68-1.69.46-.41.85-.61,1.19-.61s.6.16.79.47c.19.31.38.59.58.83.53.48.86.98,1.01,1.51.14.53.22,1.13.22,1.8.05,1.39-.04,2.99-.25,4.79-.22,1.8-.54,3.62-.97,5.47-.43,1.85-.92,3.52-1.48,5-.55,1.49-1.14,2.62-1.76,3.38-1.68,2.5-3.43,3.74-5.26,3.74Z"/>
        <path d="m250.85,435.94c-.43,0-.96-.14-1.58-.43-.62-.29-1.01-.65-1.15-1.08-.77-2.06-1.33-3.72-1.69-4.97-.36-1.25-.62-2.3-.79-3.17-.17-.86-.3-1.73-.4-2.59-.1-.86-.25-1.9-.47-3.1s-.56-2.78-1.04-4.75c-.19-.82-.36-1.64-.5-2.48s-.55-1.45-1.22-1.84c-.86-.43-1.63-.36-2.3.22-.67.58-1.3,1.27-1.87,2.09-.77,1.06-1.48,2.16-2.12,3.31-.65,1.15-1.24,2.33-1.76,3.53-.43,1.01-.78,2.06-1.04,3.17-.26,1.11-.61,2.18-1.04,3.24-.19.48-.53.95-1.01,1.4-.48.46-.98.8-1.51,1.04-.77.19-1.33,0-1.69-.58s-.66-1.15-.9-1.73c-.34-.86-.65-1.73-.94-2.59-.29-.86-.58-1.75-.86-2.66l-3.02-9.79c-1.54.38-2.65,1.09-3.35,2.12-.7,1.03-1.31,2.1-1.84,3.2-1.1,2.26-2.02,4.15-2.74,5.69-.72,1.54-1.33,2.83-1.84,3.89-.5,1.06-1,1.99-1.48,2.81-.48.82-1.06,1.66-1.73,2.52-.62.96-1.39,1.44-2.3,1.44-1.01,0-1.73-.49-2.16-1.48-.43-.98-.65-1.91-.65-2.77,0-.43.1-1.15.29-2.16.19-1.01.38-2.14.58-3.38.19-1.25.29-2.42.29-3.53,0-1.34-.07-2.71-.22-4.1-.14-1.39-.31-2.78-.5-4.18-.58-3.31-1.99-4.97-4.25-4.97-1.49,0-3.05.34-4.68,1.01-1.63.67-3.22,1.56-4.75,2.66-1.54,1.1-2.88,2.3-4.03,3.6-.96.96-1.75,1.37-2.38,1.22-.62-.14-1.09-.62-1.4-1.44-.31-.82-.47-1.75-.47-2.81,0-.33.47-.86,1.4-1.58.94-.72,2.13-1.52,3.6-2.41,1.46-.89,3.01-1.75,4.64-2.59,1.63-.84,3.17-1.52,4.61-2.05,1.44-.53,2.57-.79,3.38-.79,1.87,0,3.52.57,4.93,1.69,1.42,1.13,2.44,2.75,3.06,4.86.53,1.58.95,3.26,1.26,5.04.31,1.78.63,3.55.97,5.33.62-.91,1.25-2.03,1.87-3.35.62-1.32,1.32-2.63,2.09-3.92.77-1.3,1.73-2.38,2.88-3.24s2.57-1.3,4.25-1.3c2.5,0,4.29,1.37,5.4,4.1.38,1.06.74,2.28,1.08,3.67.33,1.39.72,2.78,1.15,4.18,1.1-1.58,2.12-3.19,3.06-4.82.94-1.63,1.86-3.12,2.77-4.46.67-.96,1.49-1.7,2.45-2.23.96-.53,2.02-.89,3.17-1.08l1.51-.14c1.25,0,2.36.32,3.35.97.98.65,1.64,1.62,1.98,2.92.67,2.35,1.25,4.72,1.73,7.09.48,2.38.94,4.76,1.37,7.16.24,1.39.44,2.8.61,4.21.17,1.42.71,2.75,1.62,4,.53.72.72,1.3.58,1.73-.14.43-.5.79-1.08,1.08l-1.15.36Z"/>
        <path d="m266.71,432.12c-1.34-.34-2.32-.66-2.92-.97-.6-.31-1-.77-1.19-1.37-.19-.6-.31-1.52-.36-2.77-.43-7.58-.79-15.14-1.08-22.68-.05-.29-.04-.58.04-.86s.13-.55.18-.79c.58-1.92,1.63-2.76,3.17-2.52.77.1,1.36.49,1.76,1.19.41.7.56,1.5.47,2.41-.48,3.94-.67,7.87-.58,11.81.1,3.94.53,7.87,1.3,11.81.14.82.22,1.64.22,2.48s-.34,1.59-1.01,2.27Zm3.02-40.82c.1,1.54-.06,2.63-.47,3.28-.41.65-1.19,1.02-2.34,1.12-.82.05-1.57-.23-2.27-.83-.7-.6-.97-1.28-.83-2.05.38-1.73,1.01-3.26,1.87-4.61.24-.33.65-.6,1.22-.79.58-.19,1.03-.24,1.37-.14.34.05.61.34.83.86.22.53.4,1.01.54,1.44.1.24.13.52.11.83-.03.31-.04.61-.04.9Z"/>
        <path d="m303.77,435c-.62.14-1.12-.05-1.48-.58-.36-.53-.64-1.19-.83-1.98-.19-.79-.36-1.55-.5-2.27-.53-2.25-1.07-4.49-1.62-6.7-.55-2.21-1.12-4.42-1.69-6.62-.53-2.26-1.13-3.59-1.8-4-.67-.41-1.34-.28-2.02.4-.67.67-1.32,1.56-1.94,2.66-.67,1.25-1.25,2.56-1.73,3.92-.48,1.37-1.03,2.7-1.66,4-.43.96-.89,1.91-1.37,2.84-.48.94-1.01,1.84-1.58,2.7-.34.62-.79,1.11-1.37,1.44-.58.34-1.25.46-2.02.36-.91-.1-1.6-.43-2.05-1.01-.46-.58-.8-1.25-1.04-2.02-.19-.77-.36-1.54-.5-2.3s-.26-1.51-.36-2.23c-.34-2.21-.62-4.39-.86-6.55-.24-2.16-.5-4.34-.79-6.55-.05-.67.05-1.26.29-1.76.24-.5.67-.85,1.3-1.04.1-.05.22-.07.36-.07h.29c.67,0,1.28.22,1.84.65s.88,1.01.97,1.73c.24,1.3.41,2.62.5,3.96.1,1.34.22,2.66.36,3.96.14.96.41,2.35.79,4.18.48-.62.85-1.18,1.12-1.66.26-.48.47-.86.61-1.15.53-1.05,1.02-2.11,1.48-3.17.46-1.05,1-2.09,1.62-3.1.53-.82,1.08-1.58,1.66-2.3s1.22-1.37,1.94-1.94c1.2-.91,2.4-1.37,3.6-1.37,1.73,0,3.21.84,4.46,2.52.53.58.96,1.21,1.3,1.91.33.7.65,1.38.94,2.05,1.01,2.88,1.79,5.77,2.34,8.68.55,2.91.97,5.87,1.26,8.89.1,1.01-.01,1.82-.32,2.45-.31.62-.8.98-1.48,1.08Z"/>
        <path d="m342.03,430.11c-.19.96-.52,1.59-.97,1.91s-1.14.4-2.05.25c-1.25-.24-2.23-.65-2.95-1.22-.72-.58-1.39-1.36-2.02-2.34-.62-.98-1.39-2.2-2.3-3.64-1.01,1.06-1.83,1.91-2.45,2.56-.62.65-1.21,1.21-1.76,1.69-.55.48-1.21,1-1.98,1.55-.77.55-1.85,1.26-3.24,2.12-1.82,1.15-3.37,1.57-4.64,1.26-1.27-.31-2.6-1.04-4-2.2-1.2-.96-1.97-2.22-2.3-3.78-.34-1.56-.19-3.11.43-4.64.82-1.97,1.85-3.77,3.1-5.4s2.57-3.19,3.96-4.68c1.2-1.2,2.39-2.4,3.56-3.6,1.18-1.2,2.41-2.47,3.71-3.82-1.25-.38-2.24-.62-2.99-.72-.74-.1-1.44-.13-2.09-.11-.65.03-1.43.1-2.34.22-.91.12-2.16.23-3.74.32-.91.1-1.76.04-2.56-.18s-1.31-.92-1.55-2.12c-.24-.77.02-1.39.79-1.87.77-.48,1.76-.83,2.99-1.04,1.22-.22,2.39-.3,3.49-.25,1.87.05,3.77.12,5.69.22,1.92.1,3.82.29,5.69.58,1.97.34,3.14,1.04,3.53,2.12.38,1.08-.05,2.41-1.3,4-1.25,1.49-2.62,2.94-4.1,4.36-1.49,1.42-2.88,2.87-4.18,4.36-1.15,1.3-2.27,2.64-3.35,4.03-1.08,1.39-2.15,2.76-3.2,4.1-.24.34-.41.73-.5,1.19-.1.46-.14.88-.14,1.26,0,1.2.37,2.05,1.12,2.56.74.5,1.6.44,2.56-.18,1.82-1.2,3.5-2.51,5.04-3.92,1.54-1.42,2.78-3.02,3.74-4.82.96-1.8,1.46-3.88,1.51-6.23,0-2.59.79-3.91,2.38-3.96,1.3-.05,2.11.24,2.45.86.34.62.49,1.56.47,2.81s.01,2.78.11,4.61c.14,1.54.41,3.04.79,4.5.38,1.46,1.1,2.82,2.16,4.07.43.58.96,1.1,1.58,1.58.62.48,1.25,1.03,1.87,1.66Z"/>
      </g>
    </g>
  </g>
</svg>